<?xml version="1.0" standalone="no"?>
<!DOCTYPE svg PUBLIC "-//W3C//DTD SVG 20010904//EN"
 "http://www.w3.org/TR/2001/REC-SVG-20010904/DTD/svg10.dtd">
<svg version="1.0" xmlns="http://www.w3.org/2000/svg"
 width="180.000000pt" height="180.000000pt" viewBox="0 0 180.000000 180.000000"
 preserveAspectRatio="xMidYMid meet">
<metadata>
Created by potrace 1.16, written by Peter Selinger 2001-2019
</metadata>
<g transform="translate(0.000000,180.000000) scale(0.100000,-0.100000)"
fill="#000000" stroke="none">
<path d="M583 1288 l108 -103 -36 -53 -37 -54 133 -314 c72 -173 133 -313 135
-311 6 5 -185 910 -193 917 -4 4 -55 11 -113 14 l-105 7 108 -103z"/>
<path d="M1175 1383 c-33 -2 -64 -8 -68 -12 -8 -8 -199 -913 -193 -918 2 -2
12 18 23 44 11 27 71 168 132 315 l112 267 -36 53 -36 53 108 102 108 103 -45
-2 c-25 -1 -72 -3 -105 -5z"/>
<path d="M763 1353 c3 -10 11 -43 17 -73 7 -30 15 -58 17 -62 2 -5 21 3 41 17
46 32 78 32 125 0 27 -19 39 -22 42 -13 10 27 34 142 31 146 -2 1 -33 -13 -70
-33 l-66 -37 -65 36 c-75 41 -78 42 -72 19z"/>
</g>
</svg>
